<?xml version="1.0" encoding="UTF-8" standalone="no"?>
<!-- Generator: Adobe Illustrator 19.0.0, SVG Export Plug-In . SVG Version: 6.00 Build 0)  -->

<svg
   xmlns:dc="http://purl.org/dc/elements/1.1/"
   xmlns:cc="http://creativecommons.org/ns#"
   xmlns:rdf="http://www.w3.org/1999/02/22-rdf-syntax-ns#"
   xmlns:svg="http://www.w3.org/2000/svg"
   xmlns="http://www.w3.org/2000/svg"
   xmlns:sodipodi="http://sodipodi.sourceforge.net/DTD/sodipodi-0.dtd"
   xmlns:inkscape="http://www.inkscape.org/namespaces/inkscape"
   version="1.1"
   id="Capa_1"
   x="0px"
   y="0px"
   viewBox="0 0 512.414 512.414"
   style="enable-background:new 0 0 512.414 512.414;"
   xml:space="preserve"
   sodipodi:docname="google-drive.svg"
   inkscape:version="0.92.3 (2405546, 2018-03-11)"><metadata
   id="metadata49"><rdf:RDF><cc:Work
       rdf:about=""><dc:format>image/svg+xml</dc:format><dc:type
         rdf:resource="http://purl.org/dc/dcmitype/StillImage" /></cc:Work></rdf:RDF></metadata><defs
   id="defs47" /><sodipodi:namedview
   pagecolor="#ffffff"
   bordercolor="#666666"
   borderopacity="1"
   objecttolerance="10"
   gridtolerance="10"
   guidetolerance="10"
   inkscape:pageopacity="0"
   inkscape:pageshadow="2"
   inkscape:window-width="1592"
   inkscape:window-height="789"
   id="namedview45"
   showgrid="false"
   inkscape:zoom="0.92113018"
   inkscape:cx="417.53677"
   inkscape:cy="242.61803"
   inkscape:window-x="1302"
   inkscape:window-y="1106"
   inkscape:window-maximized="1"
   inkscape:current-layer="Capa_1" />
<path
   style="fill:#efcb00;fill-opacity:1;stroke-width:0.74814796"
   d="M 236.15857,206.35414 221.96599,68.025781 c -0.30778,-3.22884 -1.86814,-5.430842 -4.07222,-5.748693 -2.18629,-0.373694 -4.68504,1.133298 -6.56813,3.961018 L 58.937867,294.85048 c -1.926952,2.89257 -2.91284,6.71947 -2.577613,10.00514 L 70.548072,443.2035 c 0.321337,3.14857 1.810847,5.33718 3.9336,5.78124 l 0.121852,0.0263 c 2.18631,0.37366 4.685052,-1.13329 6.568154,-3.96103 L 233.57539,216.37961 c 1.9336,-2.89702 2.92254,-6.73499 2.58318,-10.02547 z"
   id="path2"
   inkscape:connector-curvature="0" />
<path
   style="fill:#2196f3;stroke-width:0.77776015"
   d="m 473.56157,364.67644 c -1.06048,-2.09468 -3.96686,-3.37936 -7.61937,-3.36669 l -265.03337,0.91964 c -3.62652,0.009 -7.44123,1.29672 -10.01864,3.38 L 90.357425,446.99143 c -4.000594,3.23361 -3.8522,7.36783 0.330853,9.23499 1.344603,0.6002 3.007834,0.91266 4.818083,0.90569 l 265.033379,-0.91964 c 3.62555,-0.009 7.44123,-1.29674 10.01865,-3.38002 l 100.54889,-81.36872 c 2.59515,-2.10292 3.53218,-4.69324 2.45429,-6.78729 z"
   id="path4"
   inkscape:connector-curvature="0" />
<g
   id="g877"
   transform="matrix(0.76777556,0.30320783,0.05242019,0.87689319,83.142899,-55.100385)"
   style="fill:#31d53a;fill-opacity:1"><path
     id="path6"
     d="M 503.03933,279.80854 369.59363,44.846832 c -1.84977,-3.25044 -5.19273,-5.2475 -8.79245,-5.252541 L 218.32666,39.27343 c -5.62044,-0.02178 -10.16018,4.736897 -10.13856,10.62812 0.007,1.917069 0.50641,3.80198 1.44703,5.453323 l 133.4457,234.982707 c 1.84977,3.25044 5.19273,5.2475 8.79245,5.25254 l 142.47452,0.32086 c 5.62044,0.0218 10.16018,-4.7369 10.13856,-10.62812 -0.007,-1.91707 -0.50641,-3.80198 -1.44703,-5.45332 z"
     style="fill:#31d53a;stroke-width:0.97677076;fill-opacity:1"
     inkscape:connector-curvature="0" /></g>
<path
   d="m 73.83669,454.23306 c -2.40765,-0.46304 -4.138004,-2.80564 -4.571489,-6.1885 L 50.214183,299.40911 c -0.448597,-3.53004 0.581447,-7.64806 2.693882,-10.76612 L 219.87836,42.042691 c 3.21809,-4.753285 7.92192,-5.765175 10.50575,-2.258565 0.79729,1.081966 1.32723,2.520127 1.54042,4.17846 l 19.05036,148.635334 c 0.4486,3.53001 -0.58144,7.64803 -2.69389,10.7661 L 81.311364,449.96443 c -2.066014,3.05594 -4.857515,4.69039 -7.336307,4.2953 z M 65.689337,296.28078 81.882367,422.61986 235.50917,195.75001 219.31641,69.409937 Z"
   id="path8"
   inkscape:connector-curvature="0"
   style="stroke-width:0.8240726" />
<path
   d="M 362.6601,457.72767 H 83.475714 c -5.93096,9.8e-4 -9.123727,-3.52307 -7.13143,-7.87233 0.638824,-1.39536 1.772833,-2.76636 3.284689,-3.97124 L 198.12693,351.38339 c 3.03413,-2.41936 7.2497,-3.90703 11.06868,-3.90628 h 279.18438 c 5.93097,-9.6e-4 9.12375,3.52312 7.13113,7.87308 -0.63883,1.39537 -1.77284,2.76637 -3.28471,3.97125 l -118.49795,94.50072 c -3.03413,2.41935 -7.24836,3.90627 -11.06836,3.90551 z M 109.40273,441.97782 H 363.7182 l 98.75494,-78.75083 h -254.3366 z"
   id="path10"
   inkscape:connector-curvature="0"
   style="stroke-width:0.86209959" />
<path
   d="M 489.34979,357.99047 355.4573,314.13674 c -3.38737,-1.10761 -6.50722,-3.98395 -8.20331,-7.56281 L 224.75588,48.42032 c -2.64394,-5.580301 -1.07943,-11.144296 3.4933,-12.426518 1.48157,-0.415048 3.1649,-0.338495 4.87651,0.223045 l 133.89248,43.853716 c 3.38738,1.107603 6.50722,3.983961 8.20331,7.562824 L 497.71954,345.78793 c 2.64398,5.58031 1.07947,11.14429 -3.49325,12.42651 -1.48158,0.41506 -3.1658,0.33816 -4.8765,-0.22397 z M 361.07512,296.15595 472.76055,332.73618 361.40034,98.05138 249.71491,61.471136 Z"
   id="path12"
   inkscape:connector-curvature="0"
   style="stroke-width:0.91271484" />
<g
   id="g14">
</g>
<g
   id="g16">
</g>
<g
   id="g18">
</g>
<g
   id="g20">
</g>
<g
   id="g22">
</g>
<g
   id="g24">
</g>
<g
   id="g26">
</g>
<g
   id="g28">
</g>
<g
   id="g30">
</g>
<g
   id="g32">
</g>
<g
   id="g34">
</g>
<g
   id="g36">
</g>
<g
   id="g38">
</g>
<g
   id="g40">
</g>
<g
   id="g42">
</g>
</svg>